{
  "source": "C:\\Users\\Peter\\Desktop\\stuff\\MIUN\\quantitative_research\\video_compression\\videos\\HEVC_CLASS_B\\Kimono_1920x1080_24.y4m",
  "output": "C:\\Users\\Peter\\Desktop\\stuff\\MIUN\\quantitative_research\\video_compression\\compressed_videos\\HEVC_CLASS_B\\vp9\\1\\Kimono_1920x1080_24_vp9.webm",
  "codec": "vp9",
  "ok": "Input #0, yuv4mpegpipe, from 'C:\\Users\\Peter\\Desktop\\stuff\\MIUN\\quantitative_research\\video_compression\\videos\\HEVC_CLASS_B\\Kimono_1920x1080_24.y4m':\n  Duration: 00:00:10.00, start: 0.000000, bitrate: 597198 kb/s\n  Stream #0:0: Video: rawvideo (I420 / 0x30323449), yuv420p(progressive), 1920x1080, 24 fps, 24 tbr, 24 tbn\n[out#0/webm @ 0000028701ca9b40] Codec AVOption b:a (set bitrate (in bits/s)) has not been used for any stream. The most likely reason is either wrong type (e.g. a video option with no video streams) or that it is a private option of some decoder which was not actually used for any stream.\nStream mapping:\n  Stream #0:0 -> #0:0 (rawvideo (native) -> vp9 (libvpx-vp9))\nPress [q] to stop, [?] for help\n[libvpx-vp9 @ 0000028701cabe80] v1.15.2-100-g40561f514\nOutput #0, webm, to 'C:\\Users\\Peter\\Desktop\\stuff\\MIUN\\quantitative_research\\video_compression\\compressed_videos\\HEVC_CLASS_B\\vp9\\1\\Kimono_1920x1080_24_vp9.webm':\n  Metadata:\n    encoder         : Lavf62.3.100\n  Stream #0:0: Video: vp9, yuv420p(tv, progressive), 1920x1080, q=2-31, 1000 kb/s, 24 fps, 1k tbn\n    Metadata:\n      encoder         : Lavc62.11.100 libvpx-vp9\n    Side data:\n      cpb: bitrate max/min/avg: 0/0/0 buffer size: 1000000 vbv_delay: N/A\nframe=    0 fps=0.0 q=0.0 size=       0KiB time=N/A bitrate=N/A speed=N/A elapsed=0:00:00.52    \nframe=    4 fps=3.5 q=62.0 size=       0KiB time=00:00:00.16 bitrate=  23.1kbits/s speed=0.147x elapsed=0:00:01.13    \nframe=    8 fps=4.7 q=59.0 size=       0KiB time=00:00:00.33 bitrate=  11.6kbits/s speed=0.197x elapsed=0:00:01.69    \nframe=   10 fps=4.5 q=58.0 size=       0KiB time=00:00:00.41 bitrate=   9.3kbits/s speed=0.186x elapsed=0:00:02.24    \nframe=   14 fps=4.9 q=57.0 size=       0KiB time=00:00:00.54 bitrate=   7.1kbits/s speed=0.191x elapsed=0:00:02.83    \nframe=   16 fps=4.7 q=58.0 size=       0KiB time=00:00:00.66 bitrate=   5.8kbits/s speed=0.194x elapsed=0:00:03.42    \nframe=   19 fps=4.8 q=58.0 size=       0KiB time=00:00:00.79 bitrate=   4.9kbits/s speed= 0.2x elapsed=0:00:03.96    \nframe=   21 fps=4.7 q=43.0 size=       0KiB time=00:00:00.87 bitrate=   4.4kbits/s speed=0.195x elapsed=0:00:04.48    \nframe=   25 fps=4.9 q=55.0 size=       0KiB time=00:00:01.00 bitrate=   3.9kbits/s speed=0.197x elapsed=0:00:05.07    \nframe=   28 fps=4.9 q=56.0 size=       0KiB time=00:00:01.16 bitrate=   3.3kbits/s speed=0.206x elapsed=0:00:05.67    \nframe=   30 fps=4.8 q=56.0 size=       0KiB time=00:00:01.25 bitrate=   3.1kbits/s speed=0.201x elapsed=0:00:06.21    \nframe=   33 fps=4.8 q=54.0 size=       0KiB time=00:00:01.37 bitrate=   2.8kbits/s speed=0.201x elapsed=0:00:06.82    \nframe=   36 fps=4.8 q=56.0 size=       0KiB time=00:00:01.50 bitrate=   2.6kbits/s speed=0.202x elapsed=0:00:07.42    \nframe=   39 fps=4.9 q=56.0 size=       0KiB time=00:00:01.62 bitrate=   2.4kbits/s speed=0.203x elapsed=0:00:08.00    \nframe=   41 fps=4.8 q=47.0 size=       0KiB time=00:00:01.70 bitrate=   2.3kbits/s speed=0.199x elapsed=0:00:08.59    \nframe=   44 fps=4.8 q=55.0 size=       0KiB time=00:00:01.83 bitrate=   2.1kbits/s speed=0.201x elapsed=0:00:09.13    \nframe=   46 fps=4.8 q=56.0 size=       0KiB time=00:00:01.91 bitrate=   2.0kbits/s speed=0.198x elapsed=0:00:09.66    \nframe=   49 fps=4.8 q=55.0 size=       0KiB time=00:00:02.04 bitrate=   1.9kbits/s speed=0.199x elapsed=0:00:10.26    \nframe=   51 fps=4.7 q=56.0 size=       0KiB time=00:00:02.12 bitrate=   1.8kbits/s speed=0.196x elapsed=0:00:10.82    \nframe=   53 fps=4.6 q=44.0 size=       0KiB time=00:00:02.20 bitrate=   1.7kbits/s speed=0.193x elapsed=0:00:11.46    \nframe=   55 fps=4.6 q=55.0 size=       0KiB time=00:00:02.29 bitrate=   1.7kbits/s speed=0.19x elapsed=0:00:12.03    \nframe=   58 fps=4.6 q=56.0 size=       0KiB time=00:00:02.41 bitrate=   1.6kbits/s speed=0.193x elapsed=0:00:12.55    \nframe=   60 fps=4.6 q=56.0 size=       0KiB time=00:00:02.50 bitrate=   1.5kbits/s speed=0.19x elapsed=0:00:13.14    \nframe=   62 fps=4.5 q=56.0 size=       0KiB time=00:00:02.58 bitrate=   1.5kbits/s speed=0.188x elapsed=0:00:13.70    \nframe=   64 fps=4.5 q=56.0 size=       0KiB time=00:00:02.66 bitrate=   1.4kbits/s speed=0.187x elapsed=0:00:14.26    \nframe=   67 fps=4.5 q=54.0 size=       0KiB time=00:00:02.79 bitrate=   1.4kbits/s speed=0.188x elapsed=0:00:14.82    \nframe=   70 fps=4.6 q=55.0 size=       0KiB time=00:00:02.91 bitrate=   1.3kbits/s speed=0.19x elapsed=0:00:15.38    \nframe=   73 fps=4.6 q=54.0 size=       0KiB time=00:00:03.00 bitrate=   1.3kbits/s speed=0.188x elapsed=0:00:15.96    \nframe=   75 fps=4.5 q=55.0 size=       0KiB time=00:00:03.12 bitrate=   1.2kbits/s speed=0.188x elapsed=0:00:16.60    \nframe=   76 fps=4.4 q=55.0 size=       0KiB time=00:00:03.16 bitrate=   1.2kbits/s speed=0.185x elapsed=0:00:17.11    \nframe=   79 fps=4.5 q=54.0 size=       0KiB time=00:00:03.29 bitrate=   1.2kbits/s speed=0.186x elapsed=0:00:17.65    \nframe=   82 fps=4.5 q=55.0 size=       0KiB time=00:00:03.41 bitrate=   1.1kbits/s speed=0.187x elapsed=0:00:18.23    \nframe=   84 fps=4.5 q=56.0 size=       0KiB time=00:00:03.50 bitrate=   1.1kbits/s speed=0.186x elapsed=0:00:18.83    \nframe=   86 fps=4.4 q=55.0 size=       0KiB time=00:00:03.58 bitrate=   1.1kbits/s speed=0.185x elapsed=0:00:19.41    \nframe=   88 fps=4.4 q=56.0 size=       0KiB time=00:00:03.66 bitrate=   1.1kbits/s speed=0.184x elapsed=0:00:19.96    \nframe=   90 fps=4.4 q=56.0 size=       0KiB time=00:00:03.75 bitrate=   1.0kbits/s speed=0.182x elapsed=0:00:20.59    \nframe=   92 fps=4.3 q=55.0 size=       0KiB time=00:00:03.83 bitrate=   1.0kbits/s speed=0.181x elapsed=0:00:21.20    \nframe=   94 fps=4.3 q=55.0 size=       0KiB time=00:00:03.91 bitrate=   1.0kbits/s speed=0.179x elapsed=0:00:21.90    \nframe=   96 fps=4.3 q=55.0 size=       0KiB time=00:00:03.95 bitrate=   1.0kbits/s speed=0.175x elapsed=0:00:22.57    \nframe=   98 fps=4.2 q=54.0 size=       0KiB time=00:00:04.08 bitrate=   0.9kbits/s speed=0.176x elapsed=0:00:23.18    \nframe=  100 fps=4.2 q=54.0 size=       0KiB time=00:00:04.16 bitrate=   0.9kbits/s speed=0.174x elapsed=0:00:23.95    \nframe=  101 fps=4.1 q=42.0 size=       0KiB time=00:00:04.16 bitrate=   0.9kbits/s speed=0.17x elapsed=0:00:24.54    \nframe=  103 fps=4.1 q=53.0 size=       0KiB time=00:00:04.29 bitrate=   0.9kbits/s speed=0.17x elapsed=0:00:25.19    \nframe=  105 fps=4.1 q=54.0 size=       0KiB time=00:00:04.37 bitrate=   0.9kbits/s speed=0.169x elapsed=0:00:25.83    \nframe=  106 fps=4.0 q=54.0 size=       0KiB time=00:00:04.41 bitrate=   0.9kbits/s speed=0.167x elapsed=0:00:26.51    \nframe=  108 fps=4.0 q=55.0 size=       0KiB time=00:00:04.50 bitrate=   0.9kbits/s speed=0.165x elapsed=0:00:27.20    \nframe=  110 fps=4.0 q=54.0 size=       0KiB time=00:00:04.58 bitrate=   0.8kbits/s speed=0.165x elapsed=0:00:27.78    \nframe=  112 fps=3.9 q=54.0 size=       0KiB time=00:00:04.66 bitrate=   0.8kbits/s speed=0.163x elapsed=0:00:28.57    \nframe=  113 fps=3.9 q=42.0 size=       0KiB time=00:00:04.70 bitrate=   0.8kbits/s speed=0.161x elapsed=0:00:29.28    \nframe=  116 fps=3.9 q=54.0 size=       0KiB time=00:00:04.79 bitrate=   0.8kbits/s speed=0.16x elapsed=0:00:29.97    \nframe=  118 fps=3.8 q=54.0 size=       0KiB time=00:00:04.91 bitrate=   0.8kbits/s speed=0.16x elapsed=0:00:30.72    \nframe=  119 fps=3.8 q=43.0 size=       0KiB time=00:00:04.95 bitrate=   0.8kbits/s speed=0.158x elapsed=0:00:31.31    \nframe=  121 fps=3.8 q=54.0 size=       0KiB time=00:00:05.04 bitrate=   0.8kbits/s speed=0.158x elapsed=0:00:31.86    \nframe=  123 fps=3.8 q=55.0 size=     512KiB time=00:00:05.12 bitrate= 818.4kbits/s speed=0.158x elapsed=0:00:32.41    \nframe=  125 fps=3.8 q=55.0 size=     512KiB time=00:00:05.20 bitrate= 805.3kbits/s speed=0.158x elapsed=0:00:32.97    \nframe=  128 fps=3.8 q=55.0 size=     512KiB time=00:00:05.33 bitrate= 786.4kbits/s speed=0.159x elapsed=0:00:33.50    \nframe=  130 fps=3.8 q=54.0 size=     512KiB time=00:00:05.41 bitrate= 774.3kbits/s speed=0.159x elapsed=0:00:34.07    \nframe=  133 fps=3.8 q=54.0 size=     512KiB time=00:00:05.54 bitrate= 756.9kbits/s speed=0.16x elapsed=0:00:34.69    \nframe=  135 fps=3.8 q=39.0 size=     512KiB time=00:00:05.58 bitrate= 751.2kbits/s speed=0.158x elapsed=0:00:35.29    \nframe=  138 fps=3.8 q=51.0 size=     512KiB time=00:00:05.75 bitrate= 729.4kbits/s speed=0.16x elapsed=0:00:35.89    \nframe=  140 fps=3.8 q=52.0 size=     512KiB time=00:00:05.83 bitrate= 719.0kbits/s speed=0.16x elapsed=0:00:36.47    \nframe=  143 fps=3.9 q=48.0 size=     512KiB time=00:00:05.95 bitrate= 703.9kbits/s speed=0.161x elapsed=0:00:37.05    \nframe=  145 fps=3.8 q=34.0 size=     512KiB time=00:00:06.04 bitrate= 694.2kbits/s speed=0.16x elapsed=0:00:37.68    \nframe=  148 fps=3.9 q=43.0 size=     512KiB time=00:00:06.16 bitrate= 680.2kbits/s speed=0.161x elapsed=0:00:38.25    \nframe=  151 fps=3.9 q=43.0 size=     512KiB time=00:00:06.29 bitrate= 666.6kbits/s speed=0.162x elapsed=0:00:38.78    \nframe=  154 fps=3.9 q=44.0 size=     512KiB time=00:00:06.41 bitrate= 653.7kbits/s speed=0.163x elapsed=0:00:39.36    \nframe=  157 fps=3.9 q=42.0 size=     512KiB time=00:00:06.50 bitrate= 645.3kbits/s speed=0.162x elapsed=0:00:40.01    \nframe=  159 fps=3.9 q=44.0 size=     512KiB time=00:00:06.62 bitrate= 633.1kbits/s speed=0.163x elapsed=0:00:40.59    \nframe=  162 fps=3.9 q=45.0 size=     512KiB time=00:00:06.75 bitrate= 621.4kbits/s speed=0.164x elapsed=0:00:41.11    \nframe=  164 fps=3.9 q=45.0 size=     512KiB time=00:00:06.83 bitrate= 613.8kbits/s speed=0.164x elapsed=0:00:41.64    \nframe=  167 fps=4.0 q=42.0 size=     512KiB time=00:00:06.95 bitrate= 602.8kbits/s speed=0.165x elapsed=0:00:42.24    \nframe=  171 fps=4.0 q=44.0 size=     512KiB time=00:00:07.12 bitrate= 588.7kbits/s speed=0.167x elapsed=0:00:42.78    \nframe=  174 fps=4.0 q=45.0 size=     512KiB time=00:00:07.25 bitrate= 578.5kbits/s speed=0.167x elapsed=0:00:43.33    \nframe=  178 fps=4.1 q=43.0 size=     512KiB time=00:00:07.41 bitrate= 565.5kbits/s speed=0.169x elapsed=0:00:43.94    \nframe=  181 fps=4.1 q=44.0 size=     512KiB time=00:00:07.54 bitrate= 556.2kbits/s speed=0.17x elapsed=0:00:44.45    \nframe=  184 fps=4.1 q=45.0 size=     512KiB time=00:00:07.66 bitrate= 547.1kbits/s speed=0.17x elapsed=0:00:44.98    \nframe=  186 fps=4.1 q=44.0 size=     512KiB time=00:00:07.75 bitrate= 541.2kbits/s speed=0.17x elapsed=0:00:45.58    \nframe=  189 fps=4.1 q=42.0 size=     512KiB time=00:00:07.83 bitrate= 535.4kbits/s speed=0.17x elapsed=0:00:46.10    \nframe=  191 fps=4.1 q=43.0 size=     512KiB time=00:00:07.95 bitrate= 527.0kbits/s speed=0.171x elapsed=0:00:46.66    \nframe=  194 fps=4.1 q=44.0 size=     512KiB time=00:00:08.08 bitrate= 518.9kbits/s speed=0.171x elapsed=0:00:47.35    \nframe=  197 fps=4.1 q=40.0 size=     512KiB time=00:00:08.20 bitrate= 511.0kbits/s speed=0.171x elapsed=0:00:47.97    \nframe=  200 fps=4.1 q=42.0 size=     512KiB time=00:00:08.33 bitrate= 503.3kbits/s speed=0.171x elapsed=0:00:48.61    \nframe=  203 fps=4.1 q=42.0 size=     512KiB time=00:00:08.45 bitrate= 495.9kbits/s speed=0.172x elapsed=0:00:49.18    \nframe=  204 fps=4.1 q=42.0 size=     512KiB time=00:00:08.50 bitrate= 493.4kbits/s speed=0.171x elapsed=0:00:49.74    \nframe=  208 fps=4.1 q=39.0 size=     512KiB time=00:00:08.66 bitrate= 484.0kbits/s speed=0.172x elapsed=0:00:50.28    \nframe=  211 fps=4.1 q=40.0 size=     512KiB time=00:00:08.79 bitrate= 477.1kbits/s speed=0.173x elapsed=0:00:50.89    \nframe=  214 fps=4.2 q=41.0 size=     512KiB time=00:00:08.91 bitrate= 470.4kbits/s speed=0.173x elapsed=0:00:51.52    \nframe=  216 fps=4.1 q=41.0 size=     512KiB time=00:00:09.00 bitrate= 466.0kbits/s speed=0.173x elapsed=0:00:52.07    \nframe=  216 fps=4.1 q=41.0 size=     512KiB time=00:00:09.00 bitrate= 466.0kbits/s speed=0.171x elapsed=0:00:52.74    \nframe=  216 fps=4.0 q=41.0 size=     512KiB time=00:00:09.00 bitrate= 466.0kbits/s speed=0.169x elapsed=0:00:53.34    \nframe=  216 fps=4.0 q=41.0 size=     512KiB time=00:00:09.00 bitrate= 466.0kbits/s speed=0.167x elapsed=0:00:53.91    \nframe=  216 fps=4.0 q=41.0 size=     512KiB time=00:00:09.00 bitrate= 466.0kbits/s speed=0.165x elapsed=0:00:54.52    \nframe=  216 fps=3.9 q=41.0 size=     512KiB time=00:00:09.00 bitrate= 466.0kbits/s speed=0.163x elapsed=0:00:55.11    \nframe=  216 fps=3.9 q=41.0 size=     512KiB time=00:00:09.00 bitrate= 466.0kbits/s speed=0.161x elapsed=0:00:55.73    \nframe=  216 fps=3.8 q=41.0 size=     512KiB time=00:00:09.00 bitrate= 466.0kbits/s speed=0.16x elapsed=0:00:56.30    \n[out#0/webm @ 0000028701ca9b40] video:1201KiB audio:0KiB subtitle:0KiB other streams:0KiB global headers:0KiB muxing overhead: 0.182943%\nframe=  240 fps=4.2 q=37.0 Lsize=    1203KiB time=00:00:10.00 bitrate= 985.3kbits/s speed=0.177x elapsed=0:00:56.57    \n",
  "seconds": 56.83062934875488,
  "probe_out": {}
}